<?xml version="1.0" encoding="UTF-8"?>
<svg version="1.1" xmlns="http://www.w3.org/2000/svg" width="432" height="351">
<path d="M0 0 C8.82794232 8.01331111 13.30260036 18.94985422 14.0390625 30.6796875 C14.21350674 37.29461294 14.13823054 42.45829186 10.82421875 48.2578125 C8.0080362 45.44162995 8.33745744 43.18773887 7.94921875 39.2578125 C7.30421222 33.45484336 6.0693618 28.43062419 3.62890625 23.11328125 C2.82421875 21.2578125 2.82421875 21.2578125 2.82421875 19.2578125 C2.16421875 19.2578125 1.50421875 19.2578125 0.82421875 19.2578125 C0.26734375 18.3503125 -0.28953125 17.4428125 -0.86328125 16.5078125 C-2.98903434 13.52026762 -3.78641273 12.67936025 -6.8203125 11.0546875 C-7.92761719 10.46171875 -9.03492188 9.86875 -10.17578125 9.2578125 C-9.87285156 10.1456543 -9.56992188 11.03349609 -9.2578125 11.94824219 C-8.13479683 15.24904441 -7.01724209 18.55159191 -5.90332031 21.85546875 C-5.42046621 23.28393913 -4.93545866 24.7116835 -4.44824219 26.13867188 C-3.74754991 28.19212924 -3.05469089 30.2480889 -2.36328125 32.3046875 C-1.94433594 33.54057617 -1.52539062 34.77646484 -1.09375 36.04980469 C-0.17578125 39.2578125 -0.17578125 39.2578125 -0.17578125 43.2578125 C0.48421875 43.2578125 1.14421875 43.2578125 1.82421875 43.2578125 C2.18531417 44.90213956 2.53791951 46.5483333 2.88671875 48.1953125 C3.08394531 49.11183594 3.28117188 50.02835938 3.484375 50.97265625 C3.65259766 52.10380859 3.65259766 52.10380859 3.82421875 53.2578125 C3.49421875 53.5878125 3.16421875 53.9178125 2.82421875 54.2578125 C3.7464624 54.45415283 4.66870605 54.65049316 5.61889648 54.8527832 C9.08073334 55.59235448 12.54151463 56.33653721 16.00170898 57.08374023 C17.49187864 57.40456859 18.98243209 57.72362022 20.47338867 58.04077148 C34.94601594 61.1216023 34.94601594 61.1216023 41.7512207 63.55883789 C46.68596456 65.22273751 51.82453203 66.26369145 56.890625 67.45117188 C57.74269531 67.65677734 58.59476563 67.86238281 59.47265625 68.07421875 C60.62000244 68.34407593 60.62000244 68.34407593 61.79052734 68.61938477 C63.82421875 69.2578125 63.82421875 69.2578125 66.82421875 71.2578125 C65.32157015 75.74517408 61.7507016 77.60400959 57.94921875 80.0078125 C56.57540668 80.89826141 55.20171002 81.7888884 53.828125 82.6796875 C53.14637207 83.11732422 52.46461914 83.55496094 51.76220703 84.00585938 C49.111155 85.71845635 46.50046664 87.48894873 43.88671875 89.2578125 C38.68789983 92.72600854 33.40360674 96.04101234 28.09570312 99.33813477 C23.16059094 102.40859939 18.26324282 105.53267795 13.38671875 108.6953125 C12.68925537 109.1476123 11.99179199 109.59991211 11.27319336 110.06591797 C8.35843979 111.95818014 5.44543739 113.85311326 2.53369141 115.75 C0.99812476 116.75017503 -0.53792213 117.74961314 -2.07446289 118.74829102 C-3.51096273 119.68196077 -4.94642576 120.61722857 -6.38061523 121.55444336 C-18.26210593 129.27384189 -18.26210593 129.27384189 -22.73828125 129.1953125 C-28.47739828 127.63009877 -33.4225308 124.59282404 -38.55078125 121.6328125 C-44.03423745 118.47798837 -49.53504104 115.35586314 -55.05078125 112.2578125 C-55.75895996 111.85997559 -56.46713867 111.46213867 -57.19677734 111.05224609 C-58.85622421 110.12037439 -60.5159684 109.18903218 -62.17578125 108.2578125 C-62.83578125 108.9178125 -63.49578125 109.5778125 -64.17578125 110.2578125 C-64.17578125 108.9378125 -64.17578125 107.6178125 -64.17578125 106.2578125 C-64.99820313 106.020625 -65.820625 105.7834375 -66.66796875 105.5390625 C-70.83482091 104.01709423 -74.47447699 101.97976655 -78.30078125 99.7578125 C-79.69876292 98.95493495 -81.0971868 98.15282678 -82.49609375 97.3515625 C-83.10727051 96.99771484 -83.71844727 96.64386719 -84.34814453 96.27929688 C-86.26253004 95.20932774 -88.20743224 94.22433974 -90.17578125 93.2578125 C-90.17578125 92.2678125 -90.17578125 91.2778125 -90.17578125 90.2578125 C-89.51578125 89.9278125 -88.85578125 89.5978125 -88.17578125 89.2578125 C-89.49578125 89.2578125 -90.81578125 89.2578125 -92.17578125 89.2578125 C-96.46668626 73.54813549 -92.41665553 58.22308694 -84.50390625 44.3203125 C-82.78754705 41.586289 -81.01231415 38.91240015 -79.17578125 36.2578125 C-78.66917969 35.51402344 -78.16257813 34.77023438 -77.640625 34.00390625 C-74.40922649 29.46271421 -70.81376718 25.4135555 -66.17578125 22.2578125 C-65.51578125 22.2578125 -64.85578125 22.2578125 -64.17578125 22.2578125 C-64.17578125 21.5978125 -64.17578125 20.9378125 -64.17578125 20.2578125 C-54.873618 13.55848031 -44.34099322 7.98708654 -33.17578125 5.2578125 C-33.17578125 4.9278125 -33.17578125 4.5978125 -33.17578125 4.2578125 C-48.03891786 6.48728299 -60.82836526 12.3566358 -72.17578125 22.2578125 C-73.14257812 23.02609375 -74.109375 23.794375 -75.10546875 24.5859375 C-87.36841588 34.81402706 -95.25444495 50.80939005 -98.17578125 66.2578125 C-98.93041223 74.73681225 -98.74152705 82.45260856 -95.17578125 90.2578125 C-94.72203125 91.3303125 -94.26828125 92.4028125 -93.80078125 93.5078125 C-88.17346351 103.03096561 -78.50076274 108.18105021 -68.17578125 111.0078125 C-66.51126487 111.43298788 -64.8452963 111.85270958 -63.17578125 112.2578125 C-63.67078125 113.7428125 -63.67078125 113.7428125 -64.17578125 115.2578125 C-77.48597437 115.8950026 -88.6399395 113.84857577 -99.17578125 105.2578125 C-108.44854148 96.11164285 -113.32349399 84.18684938 -114.17578125 71.2578125 C-114.05704421 65.63342636 -113.58558574 60.06676365 -112.7734375 54.5 C-111.0879141 42.4172592 -117.47622095 31.45486234 -122.21362305 20.62670898 C-123.03908255 18.73362651 -123.84856687 16.83431533 -124.65625 14.93359375 C-125.38171021 13.2616394 -125.38171021 13.2616394 -126.12182617 11.5559082 C-127.27989549 7.93201234 -127.44027709 5.03972133 -127.17578125 1.2578125 C-124.25185193 -1.66611682 -116.28848573 -0.5437444 -112.17578125 -0.8046875 C-111.1340123 -0.87446304 -111.1340123 -0.87446304 -110.07119751 -0.94564819 C-99.48631484 -1.64949956 -88.98069024 -1.93717497 -78.37304688 -1.40454102 C-72.03383221 -1.22536562 -67.96002958 -2.39828956 -62.4284668 -5.49291992 C-42.93081867 -16.3056939 -17.14108781 -13.72517983 0 0 Z M-30.17578125 3.2578125 C-30.17578125 3.9178125 -30.17578125 4.5778125 -30.17578125 5.2578125 C-28.19578125 5.2578125 -26.21578125 5.2578125 -24.17578125 5.2578125 C-27.01826665 3.68507682 -27.01826665 3.68507682 -30.17578125 3.2578125 Z M-8.36328125 57.6953125 C-9.07871094 57.98277344 -9.79414063 58.27023438 -10.53125 58.56640625 C-11.07394531 58.79457031 -11.61664063 59.02273437 -12.17578125 59.2578125 C-9.00824624 60.31599344 -7.42833024 60.26384567 -4.42578125 58.8203125 C-3.35328125 58.3046875 -2.28078125 57.7890625 -1.17578125 57.2578125 C-4.58510022 56.12137284 -5.17913581 56.39033486 -8.36328125 57.6953125 Z M-20.17578125 62.2578125 C-20.83578125 62.9178125 -21.49578125 63.5778125 -22.17578125 64.2578125 C-20.19578125 63.9278125 -18.21578125 63.5978125 -16.17578125 63.2578125 C-18.06757328 62.5763302 -18.06757328 62.5763302 -20.17578125 62.2578125 Z M-30.17578125 66.2578125 C-29.84578125 66.9178125 -29.51578125 67.5778125 -29.17578125 68.2578125 C-26.86578125 67.2678125 -24.55578125 66.2778125 -22.17578125 65.2578125 C-25.79904864 64.0500567 -26.81724494 64.71470122 -30.17578125 66.2578125 Z M-33.17578125 67.2578125 C-36.47578125 68.5778125 -39.77578125 69.8978125 -43.17578125 71.2578125 C-39.76646228 72.39425216 -39.17242669 72.12529014 -35.98828125 70.8203125 C-34.91513672 70.38912109 -34.91513672 70.38912109 -33.8203125 69.94921875 C-33.27761719 69.72105469 -32.73492187 69.49289063 -32.17578125 69.2578125 C-32.50578125 68.5978125 -32.83578125 67.9378125 -33.17578125 67.2578125 Z M-54.30078125 75.0703125 C-55.04199219 75.34423828 -55.78320312 75.61816406 -56.546875 75.90039062 C-60.58761263 77.1816837 -60.58761263 77.1816837 -63.17578125 80.2578125 C-56.31959799 78.33224614 -49.74325993 76.0105642 -43.17578125 73.2578125 C-47.4110065 71.84607075 -50.3247978 73.5225439 -54.30078125 75.0703125 Z M-65.17578125 79.2578125 C-68.64078125 80.7428125 -68.64078125 80.7428125 -72.17578125 82.2578125 C-68.55251386 83.4655683 -67.53431756 82.80092378 -64.17578125 81.2578125 C-64.50578125 80.5978125 -64.83578125 79.9378125 -65.17578125 79.2578125 Z M-80.36328125 85.1953125 C-81.26433594 85.57558594 -82.16539062 85.95585937 -83.09375 86.34765625 C-83.78082031 86.64800781 -84.46789062 86.94835937 -85.17578125 87.2578125 C-81.46796453 88.49375141 -80.50067872 87.8256257 -76.98828125 86.3203125 C-76.08722656 85.94003906 -75.18617188 85.55976563 -74.2578125 85.16796875 C-73.57074219 84.86761719 -72.88367188 84.56726563 -72.17578125 84.2578125 C-75.88359797 83.02187359 -76.85088378 83.6899993 -80.36328125 85.1953125 Z M-7.17578125 90.2578125 C-7.50578125 91.2478125 -7.83578125 92.2378125 -8.17578125 93.2578125 C-6.85578125 92.9278125 -5.53578125 92.5978125 -4.17578125 92.2578125 C-5.16578125 91.5978125 -6.15578125 90.9378125 -7.17578125 90.2578125 Z M-22.17578125 97.2578125 C-23.20190074 98.90852646 -24.19886268 100.57751256 -25.17578125 102.2578125 C-26.86328125 104.0703125 -26.86328125 104.0703125 -28.17578125 105.2578125 C-27.39203125 105.6703125 -26.60828125 106.0828125 -25.80078125 106.5078125 C-23.11686469 108.2970902 -22.29479176 109.30769389 -21.17578125 112.2578125 C-20.51578125 111.2678125 -19.85578125 110.2778125 -19.17578125 109.2578125 C-18.19639335 108.23761677 -17.19682676 107.23631445 -16.17578125 106.2578125 C-15.51578125 105.5978125 -14.85578125 104.9378125 -14.17578125 104.2578125 C-14.98015625 103.6596875 -15.78453125 103.0615625 -16.61328125 102.4453125 C-19.17578125 100.2578125 -19.17578125 100.2578125 -20.17578125 97.2578125 C-20.83578125 97.2578125 -21.49578125 97.2578125 -22.17578125 97.2578125 Z " fill="#030453" transform="translate(220.17578125,121.7421875)"/>
<path d="M0 0 C2.79030183 4.18545274 4.05199613 8.68331959 5.625 13.4375 C6.11226562 14.86932617 6.11226562 14.86932617 6.609375 16.33007812 C6.91617188 17.25111328 7.22296875 18.17214844 7.5390625 19.12109375 C7.95986084 20.38070923 7.95986084 20.38070923 8.38916016 21.66577148 C9 24 9 24 9 28 C9.66 28 10.32 28 11 28 C11.36109542 29.64432706 11.71370076 31.2905208 12.0625 32.9375 C12.25972656 33.85402344 12.45695312 34.77054688 12.66015625 35.71484375 C12.82837891 36.84599609 12.82837891 36.84599609 13 38 C12.67 38.33 12.34 38.66 12 39 C12.92224365 39.19634033 13.8444873 39.39268066 14.79467773 39.5949707 C18.25651459 40.33454198 21.71729588 41.07872471 25.17749023 41.82592773 C26.66765989 42.14675609 28.15821334 42.46580772 29.64916992 42.78295898 C44.12179719 45.8637898 44.12179719 45.8637898 50.92700195 48.30102539 C55.86174581 49.96492501 61.00031328 51.00587895 66.06640625 52.19335938 C66.91847656 52.39896484 67.77054688 52.60457031 68.6484375 52.81640625 C69.41333496 52.99631104 70.17823242 53.17621582 70.96630859 53.36157227 C73 54 73 54 76 56 C74.4973514 60.48736158 70.92648285 62.34619709 67.125 64.75 C65.75118793 65.64044891 64.37749127 66.5310759 63.00390625 67.421875 C62.32215332 67.85951172 61.64040039 68.29714844 60.93798828 68.74804688 C58.28693625 70.46064385 55.67624789 72.23113623 53.0625 74 C47.86368108 77.46819604 42.57938799 80.78319984 37.27148438 84.08032227 C32.33637219 87.15078689 27.43902407 90.27486545 22.5625 93.4375 C21.51630493 94.11594971 21.51630493 94.11594971 20.44897461 94.80810547 C17.53422104 96.70036764 14.62121864 98.59530076 11.70947266 100.4921875 C10.17390601 101.49236253 8.63785912 102.49180064 7.10131836 103.49047852 C5.66481852 104.42414827 4.22935549 105.35941607 2.79516602 106.29663086 C-9.08632468 114.01602939 -9.08632468 114.01602939 -13.5625 113.9375 C-19.30161703 112.37228627 -24.24674955 109.33501154 -29.375 106.375 C-34.8584562 103.22017587 -40.35925979 100.09805064 -45.875 97 C-46.58317871 96.60216309 -47.29135742 96.20432617 -48.02099609 95.79443359 C-49.68044296 94.86256189 -51.34018715 93.93121968 -53 93 C-53.99 93.99 -53.99 93.99 -55 95 C-55 93.68 -55 92.36 -55 91 C-55.82242188 90.7628125 -56.64484375 90.525625 -57.4921875 90.28125 C-61.65903966 88.75928173 -65.29869574 86.72195405 -69.125 84.5 C-70.52298167 83.69712245 -71.92140555 82.89501428 -73.3203125 82.09375 C-73.93148926 81.73990234 -74.54266602 81.38605469 -75.17236328 81.02148438 C-77.08674879 79.95151524 -79.03165099 78.96652724 -81 78 C-81 77.01 -81 76.02 -81 75 C-77.04366575 73.4946891 -73.08461633 71.99665407 -69.125 70.5 C-67.43310547 69.85611328 -67.43310547 69.85611328 -65.70703125 69.19921875 C-64.63066406 68.79316406 -63.55429688 68.38710937 -62.4453125 67.96875 C-61.45031738 67.59169922 -60.45532227 67.21464844 -59.43017578 66.82617188 C-57 66 -57 66 -55 66 C-55 64.68 -55 63.36 -55 62 C-46.57142857 58.57142857 -46.57142857 58.57142857 -42 59 C-45 61 -45 61 -47 62 C-45.17971944 61.46321216 -43.36878372 60.89465259 -41.5625 60.3125 C-40.55316406 59.99925781 -39.54382813 59.68601563 -38.50390625 59.36328125 C-35.75833473 58.24479007 -35.75833473 58.24479007 -35.21875 55.5 C-35.1465625 54.675 -35.074375 53.85 -35 53 C-33.9375 50.6875 -33.9375 50.6875 -33 49 C-31.63875 49.5259375 -31.63875 49.5259375 -30.25 50.0625 C-26.95134608 51.01403478 -26.11606534 50.85960423 -23 50 C-22.01 50.66 -21.02 51.32 -20 52 C-17.20635373 51.07881923 -14.66853106 50.07959155 -12 48.875 C-10.46840323 48.20743933 -8.93584777 47.54207391 -7.40234375 46.87890625 C-6.6532373 46.55293457 -5.90413086 46.22696289 -5.13232422 45.89111328 C-1.50018933 44.37321858 2.23839223 43.18413187 5.99609375 42.01953125 C8.11377555 41.1319355 8.11377555 41.1319355 9.33203125 39.1796875 C10.1449838 36.52689496 9.90604165 34.9942919 9.25 32.3125 C9.06953125 31.52488281 8.8890625 30.73726562 8.703125 29.92578125 C8.17779867 27.80273323 8.17779867 27.80273323 6 27 C5.65017522 25.00281855 5.32188724 23.00187405 5 21 C3.78711461 16.84101779 2.37695731 12.74248639 0.99609375 8.63671875 C0.72667969 7.81300781 0.45726562 6.98929688 0.1796875 6.140625 C-0.07055176 5.39329102 -0.32079102 4.64595703 -0.57861328 3.87597656 C-1 2 -1 2 0 0 Z M-24 52 C-27.3 53.32 -30.6 54.64 -34 56 C-30.59068103 57.13643966 -29.99664544 56.86747764 -26.8125 55.5625 C-25.73935547 55.13130859 -25.73935547 55.13130859 -24.64453125 54.69140625 C-24.10183594 54.46324219 -23.55914062 54.23507813 -23 54 C-23.33 53.34 -23.66 52.68 -24 52 Z M2 75 C1.67 75.99 1.34 76.98 1 78 C2.32 77.67 3.64 77.34 5 77 C4.01 76.34 3.02 75.68 2 75 Z M-13 82 C-14.02611949 83.65071396 -15.02308143 85.31970006 -16 87 C-17.6875 88.8125 -17.6875 88.8125 -19 90 C-18.21625 90.4125 -17.4325 90.825 -16.625 91.25 C-13.94108344 93.0392777 -13.11901051 94.04988139 -12 97 C-11.34 96.01 -10.68 95.02 -10 94 C-9.0206121 92.97980427 -8.02104551 91.97850195 -7 91 C-6.34 90.34 -5.68 89.68 -5 89 C-5.804375 88.401875 -6.60875 87.80375 -7.4375 87.1875 C-10 85 -10 85 -11 82 C-11.66 82 -12.32 82 -13 82 Z " fill="#030453" transform="translate(211,137)"/>
<path d="M0 0 C8.82794232 8.01331111 13.30260036 18.94985422 14.0390625 30.6796875 C14.21350674 37.29461294 14.13823054 42.45829186 10.82421875 48.2578125 C8.0080362 45.44162995 8.33745744 43.18773887 7.94921875 39.2578125 C7.30421222 33.45484336 6.0693618 28.43062419 3.62890625 23.11328125 C2.82421875 21.2578125 2.82421875 21.2578125 2.82421875 19.2578125 C2.16421875 19.2578125 1.50421875 19.2578125 0.82421875 19.2578125 C0.28796875 18.3709375 -0.24828125 17.4840625 -0.80078125 16.5703125 C-3.02844079 12.97374766 -5.91095942 11.33709452 -9.56640625 9.3359375 C-10.36304688 8.80226562 -10.36304688 8.80226562 -11.17578125 8.2578125 C-11.17578125 7.5978125 -11.17578125 6.9378125 -11.17578125 6.2578125 C-12.00980469 6.19722656 -12.84382813 6.13664062 -13.703125 6.07421875 C-15.39115234 5.94853516 -15.39115234 5.94853516 -17.11328125 5.8203125 C-18.30953125 5.73394531 -19.50578125 5.64757812 -20.73828125 5.55859375 C-23.41604857 5.32428911 -25.97108794 4.96319051 -28.61328125 4.5078125 C-42.58680944 3.00883402 -57.49928929 10.64904053 -68.30078125 18.9453125 C-69.60443676 20.03529833 -70.89538114 21.14060064 -72.17578125 22.2578125 C-73.14257812 23.02609375 -74.109375 23.794375 -75.10546875 24.5859375 C-87.36841588 34.81402706 -95.25444495 50.80939005 -98.17578125 66.2578125 C-98.93041223 74.73681225 -98.74152705 82.45260856 -95.17578125 90.2578125 C-94.72203125 91.3303125 -94.26828125 92.4028125 -93.80078125 93.5078125 C-88.17346351 103.03096561 -78.50076274 108.18105021 -68.17578125 111.0078125 C-66.51126487 111.43298788 -64.8452963 111.85270958 -63.17578125 112.2578125 C-63.67078125 113.7428125 -63.67078125 113.7428125 -64.17578125 115.2578125 C-77.48597437 115.8950026 -88.6399395 113.84857577 -99.17578125 105.2578125 C-108.44854148 96.11164285 -113.32349399 84.18684938 -114.17578125 71.2578125 C-114.05704421 65.63342636 -113.58558574 60.06676365 -112.7734375 54.5 C-111.0879141 42.4172592 -117.47622095 31.45486234 -122.21362305 20.62670898 C-123.03908255 18.73362651 -123.84856687 16.83431533 -124.65625 14.93359375 C-125.38171021 13.2616394 -125.38171021 13.2616394 -126.12182617 11.5559082 C-127.27989549 7.93201234 -127.44027709 5.03972133 -127.17578125 1.2578125 C-124.25185193 -1.66611682 -116.28848573 -0.5437444 -112.17578125 -0.8046875 C-111.1340123 -0.87446304 -111.1340123 -0.87446304 -110.07119751 -0.94564819 C-99.48631484 -1.64949956 -88.98069024 -1.93717497 -78.37304688 -1.40454102 C-72.03383221 -1.22536562 -67.96002958 -2.39828956 -62.4284668 -5.49291992 C-42.93081867 -16.3056939 -17.14108781 -13.72517983 0 0 Z " fill="#EEAC08" transform="translate(220.17578125,121.7421875)"/>
<path d="M0 0 C0.95406738 -0.009104 1.90813477 -0.01820801 2.89111328 -0.02758789 C4.20378174 -0.02166626 4.20378174 -0.02166626 5.54296875 -0.015625 C6.29989014 -0.01336914 7.05681152 -0.01111328 7.83666992 -0.00878906 C9.8125 0.25 9.8125 0.25 12.8125 2.25 C12.06226563 2.71148437 11.31203125 3.17296875 10.5390625 3.6484375 C-7.16710674 14.9322179 -18.88030434 30.69610771 -26.1875 50.25 C-26.5175 49.59 -26.8475 48.93 -27.1875 48.25 C-27.8475 48.25 -28.5075 48.25 -29.1875 48.25 C-29.51621094 47.35023438 -29.84492187 46.45046875 -30.18359375 45.5234375 C-30.66321546 44.22364546 -31.14376997 42.92419744 -31.625 41.625 C-31.88361816 40.92511963 -32.14223633 40.22523926 -32.40869141 39.50415039 C-34.04271254 35.13873692 -35.76927899 30.82633321 -37.58984375 26.53515625 C-37.99855713 25.56594238 -38.40727051 24.59672852 -38.82836914 23.59814453 C-39.6386707 21.68708317 -40.4591701 19.78030736 -41.29077148 17.87841797 C-43.45655224 12.7538975 -44.80151123 8.82851664 -44.1875 3.25 C-41.31304212 0.37554212 -33.59943545 1.44782659 -29.5625 1.1875 C-28.89076752 1.14330933 -28.21903503 1.09911865 -27.52694702 1.05358887 C-18.35330318 0.45913882 -9.19539807 0.04264749 0 0 Z " fill="#040552" transform="translate(137.1875,119.75)"/>
<path d="M0 0 C8.73387534 0.45967765 16.3718889 6.5192265 22.1796875 12.66796875 C30.84982063 23.77541398 33.13683928 36.22612123 32 50 C31.26288547 52.67576836 30.38417393 54.57769562 29 57 C26.18381745 54.18381745 26.51323869 51.92992637 26.125 48 C25.47999347 42.19703086 24.24514305 37.17281169 21.8046875 31.85546875 C21 30 21 30 21 28 C20.34 28 19.68 28 19 28 C18.46375 27.113125 17.9275 26.22625 17.375 25.3125 C15.14734046 21.71593516 12.26482183 20.07928202 8.609375 18.078125 C8.07828125 17.72234375 7.5471875 17.3665625 7 17 C7 16.34 7 15.68 7 15 C6.16597656 14.93941406 5.33195312 14.87882812 4.47265625 14.81640625 C2.78462891 14.69072266 2.78462891 14.69072266 1.0625 14.5625 C-0.13375 14.47613281 -1.33 14.38976562 -2.5625 14.30078125 C-5.24026732 14.06647661 -7.79530669 13.70537801 -10.4375 13.25 C-15.79167248 12.57200423 -20.79371828 14.10037325 -25.9609375 15.40625 C-29 16 -29 16 -32 15 C-30.35 14.34 -28.7 13.68 -27 13 C-27 12.34 -27 11.68 -27 11 C-22.1414954 9.7403877 -17.35555337 9.85236112 -12.375 9.875 C-11.51648438 9.87113281 -10.65796875 9.86726563 -9.7734375 9.86328125 C-8.5359375 9.86521484 -8.5359375 9.86521484 -7.2734375 9.8671875 C-6.52497559 9.86831543 -5.77651367 9.86944336 -5.00537109 9.87060547 C-3 10 -3 10 0 11 C0 11.66 0 12.32 0 13 C1.051875 12.938125 2.10375 12.87625 3.1875 12.8125 C9.20760949 13.10857096 12.47844219 16.25356639 17 20 C17.33 18.68 17.66 17.36 18 16 C18.66 16 19.32 16 20 16 C17.12747461 9.89588354 11.88565126 6.16535916 5.75 3.6875 C4.38875 3.3471875 4.38875 3.3471875 3 3 C2.21625 2.79375 1.4325 2.5875 0.625 2.375 C0.08875 2.25125 -0.4475 2.1275 -1 2 C-0.67 1.34 -0.34 0.68 0 0 Z " fill="#EEB436" transform="translate(202,113)"/>
<path d="M0 0 C0.99 0.33 1.98 0.66 3 1 C3.0825 1.78375 3.165 2.5675 3.25 3.375 C3.4975 4.24125 3.745 5.1075 4 6 C5.31647119 6.69937532 6.65022151 7.36729133 8 8 C8.75 10.125 8.75 10.125 9 12 C9.66 12 10.32 12 11 12 C11.66 12.66 12.32 13.32 13 14 C16.12474627 12.36526484 16.12474627 12.36526484 16.6875 9.875 C16.790625 9.25625 16.89375 8.6375 17 8 C17.928125 8.86625 18.85625 9.7325 19.8125 10.625 C27.55657325 17.21603217 36.1398048 20.82579835 46 23 C45.505 24.485 45.505 24.485 45 26 C31.71999773 26.63574479 20.49517417 24.61472183 10 16 C5.22389849 11.07586272 1.93349767 6.62776067 0 0 Z " fill="#EEAC07" transform="translate(111,211)"/>
<path d="M0 0 C1.23363281 0.0918457 1.23363281 0.0918457 2.4921875 0.18554688 C4.49605377 0.33700188 6.49827296 0.50999643 8.5 0.6875 C8.5 1.0175 8.5 1.3475 8.5 1.6875 C7.20707031 1.77386719 5.91414063 1.86023438 4.58203125 1.94921875 C-5.99662363 2.76249106 -14.84060998 4.08979908 -24.5 8.6875 C-25.23089844 8.99558594 -25.96179688 9.30367187 -26.71484375 9.62109375 C-32.71162328 12.29292622 -37.50030292 16.50287959 -42.5 20.6875 C-43.09167969 21.14382812 -43.68335938 21.60015625 -44.29296875 22.0703125 C-47.13934258 24.28009373 -49.22023946 26.55831806 -51.25 29.5 C-51.9925 30.551875 -52.735 31.60375 -53.5 32.6875 C-54.16 32.6875 -54.82 32.6875 -55.5 32.6875 C-55.62375 33.265 -55.7475 33.8425 -55.875 34.4375 C-56.50648824 36.71085767 -57.38858191 38.6128529 -58.5 40.6875 C-59.16 40.6875 -59.82 40.6875 -60.5 40.6875 C-60.77714844 41.54472656 -61.05429688 42.40195313 -61.33984375 43.28515625 C-62.08814772 45.47967733 -62.88955296 47.65713494 -63.75390625 49.80859375 C-68.08503209 60.78508878 -69.45712934 70.89955942 -67.5 82.6875 C-65.85 82.6875 -64.2 82.6875 -62.5 82.6875 C-65.5 84.6875 -65.5 84.6875 -69.5 84.6875 C-73.79090501 68.97782299 -69.74087428 53.65277444 -61.828125 39.75 C-60.1117658 37.0159765 -58.3365329 34.34208765 -56.5 31.6875 C-55.74009766 30.57181641 -55.74009766 30.57181641 -54.96484375 29.43359375 C-51.73344524 24.89240171 -48.13798593 20.843243 -43.5 17.6875 C-42.84 17.6875 -42.18 17.6875 -41.5 17.6875 C-41.5 17.0275 -41.5 16.3675 -41.5 15.6875 C-34.09345728 10.35337623 -25.94728628 6.10750289 -17.5 2.6875 C-16.91621582 2.4191333 -16.33243164 2.1507666 -15.73095703 1.87426758 C-10.29447707 -0.46232258 -5.83628131 -0.53705194 0 0 Z " fill="#2D2E5D" transform="translate(197.5,126.3125)"/>
<path d="M0 0 C2.475 0.99 2.475 0.99 5 2 C5.33 4.31 5.66 6.62 6 9 C6.66 9 7.32 9 8 9 C8.33 11.31 8.66 13.62 9 16 C9.66 16 10.32 16 11 16 C11.55353075 30.78132118 11.55353075 30.78132118 8 37 C5.66244098 34.66244098 5.69348243 34.00868104 5.4375 30.82421875 C5.36273438 29.99599609 5.28796875 29.16777344 5.2109375 28.31445312 C5.14132813 27.44755859 5.07171875 26.58066406 5 25.6875 C4.39504135 18.14239701 4.39504135 18.14239701 2 11 C1.875 8.1875 1.875 8.1875 2 6 C0.68 5.67 -0.64 5.34 -2 5 C-2 4.01 -2 3.02 -2 2 C-1.34 2 -0.68 2 0 2 C0 1.34 0 0.68 0 0 Z " fill="#EFAB04" transform="translate(223,133)"/>
<path d="M0 0 C0.9075 0.350625 1.815 0.70125 2.75 1.0625 C6.04865392 2.01403478 6.88393466 1.85960423 10 1 C10.99 1.66 11.98 2.32 13 3 C15.3627974 2.07175817 17.69747517 1.06902939 20 0 C20.99 0 21.98 0 23 0 C23 0.66 23 1.32 23 2 C17.08954547 4.61905062 11.08366371 6.76167565 4.96484375 8.83789062 C4.23910156 9.08861328 3.51335937 9.33933594 2.765625 9.59765625 C2.11368164 9.81945557 1.46173828 10.04125488 0.79003906 10.26977539 C-1.28831509 11.04825098 -1.28831509 11.04825098 -4 13 C-5.33983714 13.49867149 -6.69641341 13.95352138 -8.0625 14.375 C-12.41975875 15.75622254 -16.56299216 17.47244096 -20.73828125 19.328125 C-23.2741509 20.08144034 -24.54104622 19.87779586 -27 19 C-24 17 -24 17 -22 17 C-22 15.68 -22 14.36 -22 13 C-13.57142857 9.57142857 -13.57142857 9.57142857 -9 10 C-12 12 -12 12 -14 13 C-12.17971944 12.46321216 -10.36878372 11.89465259 -8.5625 11.3125 C-7.04849609 10.84263672 -7.04849609 10.84263672 -5.50390625 10.36328125 C-2.75833473 9.24479007 -2.75833473 9.24479007 -2.21875 6.5 C-2.1465625 5.675 -2.074375 4.85 -2 4 C-0.9375 1.6875 -0.9375 1.6875 0 0 Z M9 3 C5.7 4.32 2.4 5.64 -1 7 C2.40931897 8.13643966 3.00335456 7.86747764 6.1875 6.5625 C7.26064453 6.13130859 7.26064453 6.13130859 8.35546875 5.69140625 C8.89816406 5.46324219 9.44085938 5.23507813 10 5 C9.67 4.34 9.34 3.68 9 3 Z " fill="#101152" transform="translate(178,186)"/>
<path d="M0 0 C0.33 0.66 0.66 1.32 1 2 C1.72832031 1.93039063 2.45664063 1.86078125 3.20703125 1.7890625 C6.70709373 2.05340288 8.01386097 3.15075021 10.6875 5.375 C11.45449219 6.00148438 12.22148437 6.62796875 13.01171875 7.2734375 C14.38550055 8.46638751 15.71345304 9.71345304 17 11 C16.54545455 16.45454545 16.54545455 16.45454545 14 19 C13.36384766 18.40251953 13.36384766 18.40251953 12.71484375 17.79296875 C8.67232555 14.14137539 5.11349698 11.87842746 0 10 C0 9.01 0 8.02 0 7 C-0.66 6.67 -1.32 6.34 -2 6 C-1.34 4.02 -0.68 2.04 0 0 Z " fill="#EEAA03" transform="translate(205,115)"/>
<path d="M0 0 C0.95406738 -0.009104 1.90813477 -0.01820801 2.89111328 -0.02758789 C4.20378174 -0.02166626 4.20378174 -0.02166626 5.54296875 -0.015625 C6.29989014 -0.01336914 7.05681152 -0.01111328 7.83666992 -0.00878906 C9.8125 0.25 9.8125 0.25 12.8125 2.25 C10.8325 3.24 10.8325 3.24 8.8125 4.25 C8.8125 3.59 8.8125 2.93 8.8125 2.25 C8.1525 2.58 7.4925 2.91 6.8125 3.25 C5.31130252 3.40225604 3.80427603 3.4991907 2.296875 3.56640625 C0.92486938 3.62924805 0.92486938 3.62924805 -0.47485352 3.69335938 C-1.45252686 3.73267578 -2.4302002 3.77199219 -3.4375 3.8125 C-4.43515381 3.85568359 -5.43280762 3.89886719 -6.46069336 3.94335938 C-12.97736398 4.20889434 -19.45919361 4.28183368 -25.98046875 4.21875 C-31.40335429 4.27159176 -36.79014914 4.74792085 -42.1875 5.25 C-41.86007813 6.18070312 -41.53265625 7.11140625 -41.1953125 8.0703125 C-40.25329858 11.04240294 -40.00631392 13.16983656 -40.1875 16.25 C-42.4352975 14.19766315 -43.1897242 13.24332739 -44.1875 10.25 C-44.3125 6.625 -44.3125 6.625 -44.1875 3.25 C-41.31304212 0.37554212 -33.59943545 1.44782659 -29.5625 1.1875 C-28.89076752 1.14330933 -28.21903503 1.09911865 -27.52694702 1.05358887 C-18.35330318 0.45913882 -9.19539807 0.04264749 0 0 Z " fill="#1B1B57" transform="translate(137.1875,119.75)"/>
<path d="M0 0 C2.79030183 4.18545274 4.05199613 8.68331959 5.625 13.4375 C5.94984375 14.39205078 6.2746875 15.34660156 6.609375 16.33007812 C6.91617188 17.25111328 7.22296875 18.17214844 7.5390625 19.12109375 C7.81959473 19.9608374 8.10012695 20.80058105 8.38916016 21.66577148 C9 24 9 24 9 28 C9.66 28 10.32 28 11 28 C11.36109542 29.64432706 11.71370076 31.2905208 12.0625 32.9375 C12.25972656 33.85402344 12.45695312 34.77054688 12.66015625 35.71484375 C12.77230469 36.46894531 12.88445312 37.22304687 13 38 C12.67 38.33 12.34 38.66 12 39 C13.98 39.33 15.96 39.66 18 40 C18 40.66 18 41.32 18 42 C17.31035156 42.09796875 16.62070313 42.1959375 15.91015625 42.296875 C10.14755548 43.21383205 5.20775984 44.50456755 -0.02734375 47.09765625 C-2.00370309 48.00169389 -3.88057259 48.54007951 -6 49 C-6.33 48.34 -6.66 47.68 -7 47 C-5.94039062 46.61328125 -4.88078125 46.2265625 -3.7890625 45.828125 C-2.40076192 45.30282208 -1.01275614 44.77673956 0.375 44.25 C1.07367188 43.99734375 1.77234375 43.7446875 2.4921875 43.484375 C6.47002405 41.9550073 6.47002405 41.9550073 9.5234375 39.08984375 C10.10628551 36.5339119 9.87172401 34.85400691 9.25 32.3125 C9.06953125 31.52488281 8.8890625 30.73726562 8.703125 29.92578125 C8.17779867 27.80273323 8.17779867 27.80273323 6 27 C5.65017522 25.00281855 5.32188724 23.00187405 5 21 C3.78711461 16.84101779 2.37695731 12.74248639 0.99609375 8.63671875 C0.72667969 7.81300781 0.45726562 6.98929688 0.1796875 6.140625 C-0.07055176 5.39329102 -0.32079102 4.64595703 -0.57861328 3.87597656 C-1 2 -1 2 0 0 Z " fill="#18184D" transform="translate(211,137)"/>
<path d="M0 0 C0.99 0.33 1.98 0.66 3 1 C3.0825 1.78375 3.165 2.5675 3.25 3.375 C3.4975 4.24125 3.745 5.1075 4 6 C5.31647119 6.69937532 6.65022151 7.36729133 8 8 C8.75 10.125 8.75 10.125 9 12 C9.66 12 10.32 12 11 12 C11.66 12.66 12.32 13.32 13 14 C16.12474627 12.36526484 16.12474627 12.36526484 16.6875 9.875 C16.790625 9.25625 16.89375 8.6375 17 8 C17.44730469 8.38671875 17.89460938 8.7734375 18.35546875 9.171875 C21.8521026 12.18390075 25.37407463 15.14321031 29 18 C26.69 17.67 24.38 17.34 22 17 C22 16.01 22 15.02 22 14 C20.02 14.66 18.04 15.32 16 16 C16.63979849 18.03241727 16.63979849 18.03241727 18 20 C20.38901957 20.76129575 20.38901957 20.76129575 23 21 C24.33542939 21.32483418 25.66961551 21.6550855 27 22 C27 22.66 27 23.32 27 24 C17.95264297 22.92546053 11.16823631 17.84778677 5.4375 10.9375 C2.70961442 7.43832037 1.24253905 4.25925078 0 0 Z " fill="#EEB52E" transform="translate(111,211)"/>
<path d="M0 0 C1.23363281 0.0918457 1.23363281 0.0918457 2.4921875 0.18554688 C4.49605377 0.33700188 6.49827296 0.50999643 8.5 0.6875 C8.5 1.0175 8.5 1.3475 8.5 1.6875 C7.20707031 1.77386719 5.91414063 1.86023438 4.58203125 1.94921875 C-5.99662363 2.76249106 -14.84060998 4.08979908 -24.5 8.6875 C-25.59634766 9.14962891 -25.59634766 9.14962891 -26.71484375 9.62109375 C-32.70856063 12.29156167 -37.50902188 16.49641153 -42.5 20.6875 C-43.13808594 21.20183594 -43.77617187 21.71617187 -44.43359375 22.24609375 C-47.40724596 24.59114671 -47.40724596 24.59114671 -49.5 27.6875 C-50.49 27.3575 -51.48 27.0275 -52.5 26.6875 C-50.83333333 25.02083333 -49.16666667 23.35416667 -47.5 21.6875 C-46.778125 20.924375 -46.05625 20.16125 -45.3125 19.375 C-43.5 17.6875 -43.5 17.6875 -41.5 17.6875 C-41.5 17.0275 -41.5 16.3675 -41.5 15.6875 C-34.09345728 10.35337623 -25.94728628 6.10750289 -17.5 2.6875 C-16.91621582 2.4191333 -16.33243164 2.1507666 -15.73095703 1.87426758 C-10.29447707 -0.46232258 -5.83628131 -0.53705194 0 0 Z " fill="#26254E" transform="translate(197.5,126.3125)"/>
<path d="M0 0 C0.66 0.99 1.32 1.98 2 3 C-2.62 4.65 -7.24 6.3 -12 8 C-12.11049135 9.1965951 -12.11049135 9.1965951 -10.72167969 10.44360352 C-9.01105002 11.99001079 -7.52152948 12.9055651 -5.453125 13.90234375 C-4.7725 14.23556641 -4.091875 14.56878906 -3.390625 14.91210938 C-2.68421875 15.25048828 -1.9778125 15.58886719 -1.25 15.9375 C3.94975297 18.45491772 9.01212975 21.08170419 14 24 C13.34 24.66 12.68 25.32 12 26 C11.34 25.67 10.68 25.34 10 25 C9.34 25.66 8.68 26.32 8 27 C8 25.68 8 24.36 8 23 C7.17757812 22.7628125 6.35515625 22.525625 5.5078125 22.28125 C1.34096034 20.75928173 -2.29869574 18.72195405 -6.125 16.5 C-7.52298167 15.69712245 -8.92140555 14.89501428 -10.3203125 14.09375 C-10.93148926 13.73990234 -11.54266602 13.38605469 -12.17236328 13.02148438 C-14.08674879 11.95151524 -16.03165099 10.96652724 -18 10 C-18 9.01 -18 8.02 -18 7 C-9.09 3.535 -9.09 3.535 0 0 Z " fill="#151754" transform="translate(148,205)"/>
<path d="M0 0 C0.85851562 -0.00386719 1.71703125 -0.00773437 2.6015625 -0.01171875 C3.8390625 -0.00978516 3.8390625 -0.00978516 5.1015625 -0.0078125 C5.85002441 -0.00668457 6.59848633 -0.00555664 7.36962891 -0.00439453 C9.375 0.125 9.375 0.125 12.375 1.125 C12.375 1.785 12.375 2.445 12.375 3.125 C13.4475 3.021875 14.52 2.91875 15.625 2.8125 C19.375 3.125 19.375 3.125 21.8125 5.625 C22.328125 6.45 22.84375 7.275 23.375 8.125 C22.055 7.795 20.735 7.465 19.375 7.125 C19.375 6.465 19.375 5.805 19.375 5.125 C18.54097656 5.06441406 17.70695312 5.00382812 16.84765625 4.94140625 C15.15962891 4.81572266 15.15962891 4.81572266 13.4375 4.6875 C12.24125 4.60113281 11.045 4.51476562 9.8125 4.42578125 C7.13473268 4.19147661 4.57969331 3.83037801 1.9375 3.375 C-3.41667248 2.69700423 -8.41871828 4.22537325 -13.5859375 5.53125 C-16.625 6.125 -16.625 6.125 -19.625 5.125 C-17.975 4.465 -16.325 3.805 -14.625 3.125 C-14.625 2.465 -14.625 1.805 -14.625 1.125 C-9.7664954 -0.1346123 -4.98055337 -0.02263888 0 0 Z " fill="#CBA03C" transform="translate(189.625,122.875)"/>
<path d="M0 0 C0 0.33 0 0.66 0 1 C-0.90093384 0.99214478 -0.90093384 0.99214478 -1.82006836 0.98413086 C-4.52586838 0.96341986 -7.23165177 0.95035875 -9.9375 0.9375 C-10.88302734 0.92912109 -11.82855469 0.92074219 -12.80273438 0.91210938 C-13.70185547 0.90888672 -14.60097656 0.90566406 -15.52734375 0.90234375 C-16.35999756 0.89710693 -17.19265137 0.89187012 -18.05053711 0.88647461 C-20.00516798 0.78356708 -20.00516798 0.78356708 -21 2 C-23.7301686 2.37861493 -26.44783815 2.70849816 -29.1875 3 C-34.15373448 3.54192499 -39.0788244 4.12093833 -44 5 C-34.2349477 -4.7650523 -12.22037276 -3.31399939 0 0 Z " fill="#F0BF40" transform="translate(202,112)"/>
<path d="M0 0 C1.48011981 0.08961059 2.95911751 0.19773972 4.4375 0.3125 C5.26121094 0.37050781 6.08492187 0.42851562 6.93359375 0.48828125 C10.31007189 1.05174448 13.31431002 2.07559995 16.5402832 3.19555664 C21.62338396 4.85797024 26.86295586 5.97368269 32.06640625 7.19335938 C32.91847656 7.39896484 33.77054687 7.60457031 34.6484375 7.81640625 C35.41333496 7.99631104 36.17823242 8.17621582 36.96630859 8.36157227 C39 9 39 9 42 11 C41.67 11.99 41.34 12.98 41 14 C40.34 13.67 39.68 13.34 39 13 C39 12.34 39 11.68 39 11 C37.83597656 10.87310791 36.67195313 10.74621582 35.47265625 10.61547852 C31.36501946 10.10016235 27.44507055 9.20433102 23.4375 8.15234375 C22.76074219 7.97619034 22.08398438 7.80003693 21.38671875 7.61854553 C19.25653953 7.06293303 17.12827543 6.50035569 15 5.9375 C13.54309044 5.55617539 12.0860601 5.17531194 10.62890625 4.79492188 C7.08452778 3.86859937 3.54182948 2.93602767 0 2 C0 1.34 0 0.68 0 0 Z " fill="#1C1C58" transform="translate(245,182)"/>
<path d="M0 0 C0 3.62361106 -0.80164832 4.2317053 -3 7 C-3.515625 7.9075 -4.03125 8.815 -4.5625 9.75 C-5.2740625 10.86375 -5.2740625 10.86375 -6 12 C-6.66 12 -7.32 12 -8 12 C-8.04125 13.010625 -8.0825 14.02125 -8.125 15.0625 C-8.68287403 19.23810258 -10.72319739 21.40148968 -13.625 24.32421875 C-15.1674101 26.20403107 -15.5865415 27.62778186 -16 30 C-16.66 30 -17.32 30 -18 30 C-18.33 30.99 -18.66 31.98 -19 33 C-17.08304873 20.34812161 -8.69582234 8.94427441 0 0 Z " fill="#D99E1C" transform="translate(131,136)"/>
<path d="M0 0 C0.99 0 1.98 0 3 0 C3.76247231 1.84621104 4.5247889 3.69248652 5.28637695 5.5390625 C5.92999447 7.09926834 6.57436591 8.65916337 7.21948242 10.21875 C9.28411572 15.22113324 11.28294423 20.24209494 13.17578125 25.3125 C13.88359879 27.19488922 13.88359879 27.19488922 16 28 C15.67 29.65 15.34 31.3 15 33 C14.67 32.34 14.34 31.68 14 31 C13.34 31 12.68 31 12 31 C11.45472656 29.52853516 11.45472656 29.52853516 10.8984375 28.02734375 C7.40180371 18.62794185 3.7659355 9.29464931 0 0 Z " fill="#1D1D5D" transform="translate(96,137)"/>
<path d="M0 0 C0.66 0.33 1.32 0.66 2 1 C1.01 2.485 1.01 2.485 0 4 C-0.66 4 -1.32 4 -2 4 C-2.433125 4.928125 -2.433125 4.928125 -2.875 5.875 C-4 8 -4 8 -6 10 C-8.625 10.125 -8.625 10.125 -11 10 C-11 10.66 -11 11.32 -11 12 C-11.9075 12.4125 -12.815 12.825 -13.75 13.25 C-16.79665618 14.89050718 -18.71126806 16.44718361 -21 19 C-21.66 18.67 -22.32 18.34 -23 18 C-18.57618574 13.04884365 -14.04635517 9.57220876 -8.234375 6.359375 C-6.12259415 5.07458525 -4.6961974 3.772431 -3 2 C-2.01 1.34 -1.02 0.68 0 0 Z " fill="#BE9129" transform="translate(155,117)"/>
<path d="M0 0 C0.64066406 0.19335938 1.28132812 0.38671875 1.94140625 0.5859375 C6.95110985 2.0940748 11.96539857 3.57717786 17 5 C16.67 5.99 16.34 6.98 16 8 C3.33029613 8.18451025 3.33029613 8.18451025 -2 7 C-2 6.67 -2 6.34 -2 6 C-0.02 5.67 1.96 5.34 4 5 C3.34 5 2.68 5 2 5 C1.34 3.35 0.68 1.7 0 0 Z " fill="#E5B84F" transform="translate(140,229)"/>
<path d="M0 0 C1.29390887 3.88172661 0.36594189 5.40550472 -0.9375 9.25 C-4.17620223 20.12439256 -4.294565 30.42349151 0 41 C0.37229359 42.65839874 0.7293569 44.32201275 1 46 C-1 45 -1 45 -2 42 C-2.66 41.67 -3.32 41.34 -4 41 C-7.90517026 29.28448921 -5.85924859 13.14309617 -1 2 C-0.67 1.34 -0.34 0.68 0 0 Z " fill="#D4AC57" transform="translate(125,171)"/>
<path d="M0 0 C0.66 0 1.32 0 2 0 C2.268125 0.639375 2.53625 1.27875 2.8125 1.9375 C3.88667752 4.33131686 3.88667752 4.33131686 7 5 C5.87994369 8.36016893 4.62788203 9.69064913 2 12 C1.34 12 0.68 12 0 12 C0 11.34 0 10.68 0 10 C-0.66 10 -1.32 10 -2 10 C-2 9.34 -2 8.68 -2 8 C-2.99 7.67 -3.98 7.34 -5 7 C-5 6.34 -5 5.68 -5 5 C-3.68 4.67 -2.36 4.34 -1 4 C-0.67 2.68 -0.34 1.36 0 0 Z M0 4 C-0.33 4.99 -0.66 5.98 -1 7 C0.32 6.67 1.64 6.34 3 6 C2.01 5.34 1.02 4.68 0 4 Z " fill="#0F1357" transform="translate(213,208)"/>
<path d="M0 0 C-1.45855647 3.68646141 -3.30229045 5.16143971 -6.625 7.25 C-7.44226563 7.77078125 -8.25953125 8.2915625 -9.1015625 8.828125 C-10.04128906 9.40820312 -10.04128906 9.40820312 -11 10 C-12.4783226 7.04335481 -12.06032783 4.25770263 -12 1 C-10.37512529 0.83211627 -8.75009558 0.66573213 -7.125 0.5 C-6.22007812 0.4071875 -5.31515625 0.314375 -4.3828125 0.21875 C-2 0 -2 0 0 0 Z " fill="#050649" transform="translate(146,122)"/>
<path d="M0 0 C6.435 2.97 6.435 2.97 13 6 C13 6.66 13 7.32 13 8 C13.78375 8.144375 14.5675 8.28875 15.375 8.4375 C18 9 18 9 20 10 C20 10.66 20 11.32 20 12 C21.98 12.66 23.96 13.32 26 14 C25.67 14.66 25.34 15.32 25 16 C21.88824868 14.46952639 18.83973856 12.84264782 15.796875 11.1796875 C14.8171875 10.64472656 13.8375 10.10976562 12.828125 9.55859375 C11.30445313 8.72521484 11.30445313 8.72521484 9.75 7.875 C8.71875 7.31167969 7.6875 6.74835938 6.625 6.16796875 C4.08298766 4.77927682 1.54133484 3.38993126 -1 2 C-0.67 1.34 -0.34 0.68 0 0 Z " fill="#171752" transform="translate(166,232)"/>
<path d="M0 0 C2.64 0 5.28 0 8 0 C5.06427721 2.32525707 2.07145983 4.09008583 -1.25 5.8125 C-6.20609635 8.46683885 -10.63195493 11.47051946 -15 15 C-13.35281747 11.58902024 -11.62004704 8.77416745 -9 6 C-7.68 6 -6.36 6 -5 6 C-5 5.34 -5 4.68 -5 4 C-3.35178756 2.96986723 -1.68496298 1.96885372 0 1 C0 0.67 0 0.34 0 0 Z " fill="#DFAD3E" transform="translate(162,129)"/>
<path d="M0 0 C0.33 0 0.66 0 1 0 C1.55353075 14.78132118 1.55353075 14.78132118 -2 21 C-4.85793316 18.14206684 -4.40799941 15.85334416 -4.625 11.875 C-4.69976562 10.59367188 -4.77453125 9.31234375 -4.8515625 7.9921875 C-4.90054688 7.00476563 -4.94953125 6.01734375 -5 5 C-2 8.625 -2 8.625 -2 12 C-1.34 12 -0.68 12 0 12 C0 8.04 0 4.08 0 0 Z " fill="#E8BD6C" transform="translate(233,149)"/>
<path d="M0 0 C2.14336161 3.4766338 2.21277626 6.21229195 2.125 10.25 C2.10695312 11.32765625 2.08890625 12.4053125 2.0703125 13.515625 C2.04710937 14.33546875 2.02390625 15.1553125 2 16 C1.34 16 0.68 16 0 16 C-3.42857143 8.71428571 -3.42857143 8.71428571 -3 4 C-2.34 3.67 -1.68 3.34 -1 3 C-0.67 2.01 -0.34 1.02 0 0 Z " fill="#EEAE14" transform="translate(231,145)"/>
<path d="M0 0 C-2.01191543 1.32816672 -4.0328114 2.63698759 -6.0625 3.9375 C-6.90458008 4.49727539 -6.90458008 4.49727539 -7.76367188 5.06835938 C-11.82750585 7.64599121 -15.19626766 8.76680911 -20 9 C-22.4375 7.5625 -22.4375 7.5625 -24 6 C-23.38511719 6.03480469 -22.77023438 6.06960937 -22.13671875 6.10546875 C-21.32847656 6.13253906 -20.52023438 6.15960938 -19.6875 6.1875 C-18.88699219 6.22230469 -18.08648437 6.25710937 -17.26171875 6.29296875 C-14.44817394 5.92851994 -13.85200617 5.07603917 -12 3 C-10.09765625 1.796875 -10.09765625 1.796875 -8.0625 0.75 C-7.39347656 0.39421875 -6.72445312 0.0384375 -6.03515625 -0.328125 C-3.61730731 -1.12634 -2.36988243 -0.82707306 0 0 Z " fill="#1B1B56" transform="translate(216,242)"/>
<path d="M0 0 C2.52282655 2.52282655 5 5.30389793 5 9 C3.0625 8.25 3.0625 8.25 1 7 C0.25 4.875 0.25 4.875 0 3 C-0.66 3 -1.32 3 -2 3 C-2.04125 3.5775 -2.0825 4.155 -2.125 4.75 C-3.44065958 8.13312465 -5.96552364 9.19222685 -9 11 C-9.33 10.01 -9.66 9.02 -10 8 C-8.02 7.34 -6.04 6.68 -4 6 C-3.67 4.35 -3.34 2.7 -3 1 C-2.01 0.67 -1.02 0.34 0 0 Z " fill="#1E1E56" transform="translate(200,216)"/>
<path d="M0 0 C0.66 0.66 1.32 1.32 2 2 C-0.39205419 3.63080927 -2.78832782 5.25472186 -5.1875 6.875 C-5.86103516 7.33519531 -6.53457031 7.79539063 -7.22851562 8.26953125 C-10.72029983 10.62009818 -13.97897575 12.64144035 -18 14 C-16.66504054 9.99512161 -14.74087811 9.18238529 -11.25 6.875 C-10.20328125 6.17117187 -9.1565625 5.46734375 -8.078125 4.7421875 C-5.24370519 3.13793466 -3.20000898 2.39111221 0 2 C0 1.34 0 0.68 0 0 Z " fill="#11154E" transform="translate(280,197)"/>
<path d="M0 0 C-3.63256954 2.99232073 -7.38413175 5.65986709 -11.3125 8.25 C-12.38113281 8.95640625 -13.44976562 9.6628125 -14.55078125 10.390625 C-15.35902344 10.92171875 -16.16726562 11.4528125 -17 12 C-17.33 11.01 -17.66 10.02 -18 9 C-15.57058047 7.29970515 -13.13271588 5.61479684 -10.6875 3.9375 C-9.99720703 3.45216797 -9.30691406 2.96683594 -8.59570312 2.46679688 C-7.92861328 2.01240234 -7.26152344 1.55800781 -6.57421875 1.08984375 C-5.96151123 0.66566162 -5.34880371 0.24147949 -4.7175293 -0.19555664 C-3 -1 -3 -1 0 0 Z " fill="#22225C" transform="translate(244,223)"/>
<path d="M0 0 C-2.51098734 2.51098734 -4.6157395 2.95806777 -8 4 C-9.05960938 4.35320312 -10.11921875 4.70640625 -11.2109375 5.0703125 C-14.140625 6.046875 -17.0703125 7.0234375 -20 8 C-20.33 7.34 -20.66 6.68 -21 6 C-18.62988762 4.98682219 -16.25500617 3.98944077 -13.875 3 C-13.20984375 2.71382812 -12.5446875 2.42765625 -11.859375 2.1328125 C-7.74107759 0.43704298 -4.53659537 -0.3391847 0 0 Z " fill="#151D5D" transform="translate(225,178)"/>
<path d="M0 0 C0 0.66 0 1.32 0 2 C-4.96093728 4.27376292 -9.67812773 5.78623966 -15 7 C-15 6.34 -15 5.68 -15 5 C-14.34 5 -13.68 5 -13 5 C-13.33 3.68 -13.66 2.36 -14 1 C-13.484375 1.391875 -12.96875 1.78375 -12.4375 2.1875 C-7.89223893 3.70258702 -4.68928333 0 0 0 Z " fill="#1B1C5A" transform="translate(201,186)"/>
<path d="M0 0 C5.47932789 1.54545146 10.11429181 4.15543212 15 7 C14.34 7.66 13.68 8.32 13 9 C12.34 8.67 11.68 8.34 11 8 C10.34 8.66 9.68 9.32 9 10 C9 8.68 9 7.36 9 6 C7.6078125 5.566875 7.6078125 5.566875 6.1875 5.125 C3 4 3 4 0 2 C0 1.34 0 0.68 0 0 Z " fill="#272654" transform="translate(147,222)"/>
<path d="M0 0 C0.99 0.33 1.98 0.66 3 1 C1.625 3 1.625 3 0 5 C-0.66 5 -1.32 5 -2 5 C-2.12375 5.5775 -2.2475 6.155 -2.375 6.75 C-3.00648824 9.02335767 -3.88858191 10.9253529 -5 13 C-5.66 13 -6.32 13 -7 13 C-7.33 13.66 -7.66 14.32 -8 15 C-7.4520917 10.7170548 -5.97567196 8.14864359 -3.4375 4.6875 C-2.79683594 3.80449219 -2.15617188 2.92148438 -1.49609375 2.01171875 C-0.75552734 1.01591797 -0.75552734 1.01591797 0 0 Z " fill="#1A1855" transform="translate(144,154)"/>
<path d="M0 0 C4.875 2.625 4.875 2.625 6 6 C6.33 5.34 6.66 4.68 7 4 C7.66 4 8.32 4 9 4 C8.40138258 6.35171131 7.73075648 8.6859378 7 11 C6.01 11.495 6.01 11.495 5 12 C4.81824219 11.45730469 4.63648438 10.91460937 4.44921875 10.35546875 C4.07216797 9.28232422 4.07216797 9.28232422 3.6875 8.1875 C3.44386719 7.47980469 3.20023438 6.77210938 2.94921875 6.04296875 C1.93275742 3.85527627 0.79179406 2.59103282 -1 1 C-0.67 0.67 -0.34 0.34 0 0 Z " fill="#1D1C5D" transform="translate(193,227)"/>
<path d="M0 0 C0.99 0.33 1.98 0.66 3 1 C0.63746991 3.36253009 -1.31227271 4.037848 -4.4375 5.1875 C-5.40558594 5.55230469 -6.37367188 5.91710937 -7.37109375 6.29296875 C-10 7 -10 7 -13 6 C-12.67 5.34 -12.34 4.68 -12 4 C-9.53125 3.18359375 -9.53125 3.18359375 -6.5 2.4375 C-2.95211183 1.79159388 -2.95211183 1.79159388 0 0 Z " fill="#0D0F4E" transform="translate(147,202)"/>
<path d="M0 0 C-2.47126394 1.64750929 -4.7609443 2.93723705 -7.4375 4.1875 C-8.19933594 4.55230469 -8.96117187 4.91710937 -9.74609375 5.29296875 C-12.28988738 6.09093521 -13.52455813 5.8852947 -16 5 C-13.79625376 2.46569182 -12.28878404 1.59796073 -9 1 C-8.360625 0.814375 -7.72125 0.62875 -7.0625 0.4375 C-4.66684693 -0.07066883 -2.44199733 -0.06783326 0 0 Z " fill="#131452" transform="translate(216,178)"/>
<path d="M0 0 C0.99 0.33 1.98 0.66 3 1 C2.29875 1.515625 1.5975 2.03125 0.875 2.5625 C-2.49467357 5.41939716 -5.21156604 8.58871997 -8 12 C-8.33 11.01 -8.66 10.02 -9 9 C-7.890625 7.24609375 -7.890625 7.24609375 -6.25 5.4375 C-5.71890625 4.83808594 -5.1878125 4.23867187 -4.640625 3.62109375 C-3 2 -3 2 0 0 Z " fill="#DDB349" transform="translate(144,144)"/>
<path d="M0 0 C0 3.62361106 -0.80164832 4.2317053 -3 7 C-3.474375 7.86625 -3.94875 8.7325 -4.4375 9.625 C-6.10410087 12.15823332 -7.20928844 12.94145424 -10 14 C-8.62815653 9.93501119 -6.77931541 7.32603439 -3.875 4.1875 C-3.15054688 3.39730469 -2.42609375 2.60710937 -1.6796875 1.79296875 C-1.12539062 1.20128906 -0.57109375 0.60960937 0 0 Z " fill="#AD802A" transform="translate(131,136)"/>
<path d="M0 0 C-1.13499394 3.29148243 -1.99283376 3.9959869 -5.125 5.75 C-6.548125 6.36875 -6.548125 6.36875 -8 7 C-8 5.35 -8 3.7 -8 2 C-2.25 0 -2.25 0 0 0 Z " fill="#100543" transform="translate(146,122)"/>
<path d="M0 0 C2 1 2 1 2.81640625 2.890625 C4.08503456 6.90241296 5.32818817 10.83476665 6 15 C4 14 4 14 3 11 C2.34 10.67 1.68 10.34 1 10 C-0.1577506 6.52674819 -0.06866652 3.63932552 0 0 Z " fill="#E0AD3F" transform="translate(120,202)"/>
<path d="M0 0 C-0.99 0.99 -1.98 1.98 -3 3 C-3.33 2.34 -3.66 1.68 -4 1 C-9.94 1 -15.88 1 -22 1 C-22 0.67 -22 0.34 -22 0 C-19.27119539 -0.19555932 -16.54228931 -0.38170447 -13.8125 -0.5625 C-13.04357422 -0.61857422 -12.27464844 -0.67464844 -11.48242188 -0.73242188 C-7.45938647 -0.99141557 -3.93927628 -1.06573607 0 0 Z " fill="#37334C" transform="translate(150,121)"/>
<path d="M0 0 C1.65 0.33 3.3 0.66 5 1 C5 1.99 5 2.98 5 4 C1.7 4.66 -1.6 5.32 -5 6 C-3.35 4.02 -1.7 2.04 0 0 Z " fill="#14175A" transform="translate(206,224)"/>
<path d="M0 0 C0.495 0.4125 0.99 0.825 1.5 1.25 C4.81363239 3.56954268 8.35758351 5.25835911 12 7 C12 7.66 12 8.32 12 9 C7.1725201 7.58707905 3.2837641 5.57025846 -1 3 C-0.67 2.01 -0.34 1.02 0 0 Z " fill="#17184B" transform="translate(135,214)"/>
<path d="M0 0 C1.4391134 0.28359887 2.87625518 0.57721399 4.3125 0.875 C5.11300781 1.03742188 5.91351563 1.19984375 6.73828125 1.3671875 C9 2 9 2 12 4 C11.67 4.99 11.34 5.98 11 7 C10.34 6.67 9.68 6.34 9 6 C9 5.34 9 4.68 9 4 C6.36 3.67 3.72 3.34 1 3 C0.67 2.01 0.34 1.02 0 0 Z " fill="#2D2E5E" transform="translate(275,189)"/>
<path d="M0 0 C0.66 0 1.32 0 2 0 C1.1875 3.4375 1.1875 3.4375 0 7 C-0.99 7.33 -1.98 7.66 -3 8 C-3.66 6.02 -4.32 4.04 -5 2 C-2.525 2.495 -2.525 2.495 0 3 C0 2.01 0 1.02 0 0 Z " fill="#160E40" transform="translate(113,158)"/>
<path d="M0 0 C1.32 0.66 2.64 1.32 4 2 C1.69 4.64 -0.62 7.28 -3 10 C-4 7 -4 7 -3.22265625 5.17578125 C-2.1484375 3.45052083 -1.07421875 1.72526042 0 0 Z " fill="#16093C" transform="translate(128,134)"/>
<path d="M0 0 C3.62174279 3.62174279 4.87956218 9.03284894 5.1875 14.0625 C5.125625 14.701875 5.06375 15.34125 5 16 C3.5393715 13.35261084 3 12.10551666 3 9 C2.34 9 1.68 9 1 9 C0.67 6.03 0.34 3.06 0 0 Z " fill="#ECB745" transform="translate(228,133)"/>
<path d="M0 0 C1.32 0 2.64 0 4 0 C4 0.66 4 1.32 4 2 C4.7425 2.144375 5.485 2.28875 6.25 2.4375 C8.52027739 2.90187492 10.75759479 3.41863569 13 4 C13 4.66 13 5.32 13 6 C7.71862571 5.48474397 4.42778844 3.74522883 0 1 C0 0.67 0 0.34 0 0 Z " fill="#F0C04C" transform="translate(125,229)"/>
<path d="M0 0 C3.43595166 1.52708963 6.11912454 3.59927045 9 6 C8.67 7.32 8.34 8.64 8 10 C6.85157077 8.71064081 5.70633773 7.41843421 4.5625 6.125 C3.92441406 5.40570313 3.28632813 4.68640625 2.62890625 3.9453125 C1 2 1 2 0 0 Z " fill="#E5B83F" transform="translate(210,127)"/>
<path d="M0 0 C0.99 0 1.98 0 3 0 C6.42857143 7.28571429 6.42857143 7.28571429 6 12 C3.71540242 9.71540242 3.02870252 7.87462656 1.875 4.875 C1.52179688 3.96492187 1.16859375 3.05484375 0.8046875 2.1171875 C0.53914063 1.41851562 0.27359375 0.71984375 0 0 Z " fill="#2E2D63" transform="translate(96,137)"/>
<path d="M0 0 C0.99 0.66 1.98 1.32 3 2 C1.02 2.99 1.02 2.99 -1 4 C-1 4.66 -1 5.32 -1 6 C-2.32 5.67 -3.64 5.34 -5 5 C-5 4.01 -5 3.02 -5 2 C-2.6875 0.875 -2.6875 0.875 0 0 Z " fill="#29295A" transform="translate(135,210)"/>
<path d="M0 0 C1.4370809 -0.05422947 2.87475462 -0.09289723 4.3125 -0.125 C5.11300781 -0.14820312 5.91351563 -0.17140625 6.73828125 -0.1953125 C9 0 9 0 12 2 C8.7 2.33 5.4 2.66 2 3 C1.34 2.01 0.68 1.02 0 0 Z " fill="#E6BA4A" transform="translate(190,123)"/>
<path d="M0 0 C1.0326802 2.78823655 1.04509293 3.8677274 0.0625 6.75 C-0.288125 7.4925 -0.63875 8.235 -1 9 C-1.66 9 -2.32 9 -3 9 C-3.33 9.99 -3.66 10.98 -4 12 C-3.33501617 7.61110675 -1.81242323 4.0188515 0 0 Z " fill="#B88B25" transform="translate(116,157)"/>
<path d="M0 0 C2 0 2 0 3.6875 1.1875 C5 3 5 3 4.6875 5.6875 C4.460625 6.450625 4.23375 7.21375 4 8 C3.67 7.34 3.34 6.68 3 6 C2.34 6 1.68 6 1 6 C0.67 4.02 0.34 2.04 0 0 Z " fill="#373144" transform="translate(107,162)"/>
<path d="M0 0 C2.0625 0.4375 2.0625 0.4375 4 1 C2.69593116 3.01920337 1.36176581 5.01924973 0 7 C-0.33 7 -0.66 7 -1 7 C-1.04254356 5.00045254 -1.04080783 2.99958364 -1 1 C-0.67 0.67 -0.34 0.34 0 0 Z " fill="#140C3A" transform="translate(120,144)"/>
<path d="M0 0 C0.33 1.32 0.66 2.64 1 4 C-3.625 7 -3.625 7 -7 7 C-4.66666667 4.66666667 -2.33333333 2.33333333 0 0 Z " fill="#E5AA11" transform="translate(136,133)"/>
<path d="M0 0 C1.33597652 0.80814651 2.668725 1.62163181 4 2.4375 C5.11375 3.11619141 5.11375 3.11619141 6.25 3.80859375 C6.8275 4.20175781 7.405 4.59492188 8 5 C8 5.33 8 5.66 8 6 C5.69 5.67 3.38 5.34 1 5 C0.67 3.35 0.34 1.7 0 0 Z " fill="#E6B54D" transform="translate(132,223)"/>
<path d="M0 0 C0.66 0.66 1.32 1.32 2 2 C-0.64 3.65 -3.28 5.3 -6 7 C-6 6.01 -6 5.02 -6 4 C-4.02 3.34 -2.04 2.68 0 2 C0 1.34 0 0.68 0 0 Z " fill="#191A53" transform="translate(280,197)"/>
<path d="M0 0 C0.66 0 1.32 0 2 0 C2.33 2.64 2.66 5.28 3 8 C0.52557871 5.84832931 -0.56238367 4.28212246 -1 1 C-0.67 0.67 -0.34 0.34 0 0 Z " fill="#31316B" transform="translate(94,128)"/>
<path d="M0 0 C0.66 0 1.32 0 2 0 C2 0.66 2 1.32 2 2 C3.98 2.66 5.96 3.32 8 4 C7.67 4.66 7.34 5.32 7 6 C4.04590299 4.62845496 1.55991624 3.01136276 -1 1 C-0.67 0.67 -0.34 0.34 0 0 Z " fill="#313069" transform="translate(184,242)"/>
<path d="M0 0 C1.98 0.99 3.96 1.98 6 3 C3.64046906 5.35953094 2.22104383 5.49141413 -1 6 C-1 5.34 -1 4.68 -1 4 C-0.34 4 0.32 4 1 4 C0.67 2.68 0.34 1.36 0 0 Z " fill="#2B2C67" transform="translate(187,187)"/>
</svg>
