<?xml version="1.0" standalone="no"?>
<!DOCTYPE svg PUBLIC "-//W3C//DTD SVG 20010904//EN"
 "http://www.w3.org/TR/2001/REC-SVG-20010904/DTD/svg10.dtd">
<svg version="1.0" xmlns="http://www.w3.org/2000/svg"
 width="432.000000pt" height="351.000000pt" viewBox="0 0 432.000000 351.000000"
 preserveAspectRatio="xMidYMid meet">

<g transform="translate(0.000000,351.000000) scale(0.100000,-0.100000)"
fill="#000000" stroke="none">
<path d="M1237 2289 c-106 -4 -215 -7 -243 -8 -35 -1 -54 -6 -57 -15 -6 -14
162 -446 172 -446 3 0 17 26 30 58 56 131 198 304 314 379 49 32 50 45 3 40
-15 -1 -113 -5 -219 -8z"/>
<path d="M1893 2230 c-259 -46 -519 -288 -599 -556 -20 -67 -25 -237 -8 -254
8 -8 110 26 370 125 198 75 403 153 458 173 54 20 100 42 103 49 5 13 -133
441 -147 456 -12 13 -119 17 -177 7z"/>
<path d="M1772 1556 c-249 -96 -455 -176 -458 -178 -6 -7 659 -368 677 -368 8
1 201 121 429 268 313 202 415 273 415 288 0 17 -34 28 -275 91 -151 39 -288
71 -305 72 -16 0 -234 -78 -483 -173z m406 -182 c2 -1 -8 -14 -22 -29 -15 -16
-26 -23 -26 -17 0 6 -7 17 -15 26 -14 14 -14 17 2 34 17 17 20 18 38 3 11 -9
21 -16 23 -17z m-168 -57 c8 -18 29 -39 47 -47 18 -8 33 -17 33 -20 0 -3 -15
-12 -33 -20 -20 -9 -39 -30 -51 -55 l-20 -40 -8 32 c-8 32 -50 73 -74 73 -24
0 -15 14 19 30 18 8 39 29 47 47 8 18 17 33 20 33 3 0 12 -15 20 -33z"/>
</g>
</svg>
