<?xml version="1.0" encoding="UTF-8" standalone="no"?>
<svg
   width="176.14386mm"
   height="37.364422mm"
   viewBox="0 0 176.14386 37.364422"
   version="1.1"
   id="svg1"
   xml:space="preserve"
   xmlns="http://www.w3.org/2000/svg"
   xmlns:svg="http://www.w3.org/2000/svg"><defs
     id="defs1" /><g
     id="layer1"
     transform="translate(-72.072603,-131.29395)"><path
       id="rect9"
       style="display:inline;fill:#0c01ea;fill-opacity:1;stroke:#ffffff;stroke-width:0.899999;stroke-linejoin:bevel;stroke-opacity:0"
       d="m 107.34849,148.83123 -24.890474,9.67537 18.240234,9.75496 23.03115,-15.00993 z m -4.05505,7.03316 h 10e-4 a 1.4858344,1.4858344 0 0 0 -5.2e-4,0.0119 1.4858344,1.4858344 0 0 0 1.4857,1.4733 v 0.001 a 1.4858344,1.4858344 0 0 0 -0.0186,-0.001 1.4858344,1.4858344 0 0 0 -1.46658,1.4857 h -10e-4 v -0.0248 a 1.4858344,1.4858344 0 0 0 -1.4857,-1.45986 v -0.001 a 1.4858344,1.4858344 0 0 0 0.006,5.2e-4 1.4858344,1.4858344 0 0 0 1.4795,-1.4857 z m -3.708821,2.127 a 3.2769977,3.2769977 0 0 0 -0.0026,0.0269 3.2769977,3.2769977 0 0 0 3.277311,3.2489 v 0.003 a 3.2769977,3.2769977 0 0 0 -0.0408,-0.002 3.2769977,3.2769977 0 0 0 -3.23494,3.27681 h -0.0021 l -5.17e-4,-0.0543 a 3.2769977,3.2769977 0 0 0 -3.276803,-3.22047 v -0.003 a 3.2769977,3.2769977 0 0 0 0.01395,10e-4 3.2769977,3.2769977 0 0 0 3.263367,-3.2768 z" /><path
       id="rect15"
       style="display:inline;fill:#0c01ea;fill-opacity:1;stroke-width:0.1;stroke-linejoin:bevel"
       d="m 97.362533,133.8032 -25.28993,0.7152 7.326168,16.56333 c 0.789106,-3.55276 2.558181,-7.16476 5.039486,-10.15338 3.082597,-3.71285 8.058609,-6.32981 12.924276,-7.12515 z m 4.289657,3.05046 c -3.935786,-0.0724 -8.390876,1.77441 -12.062826,4.70876 -4.997455,3.99359 -8.104462,10.55273 -7.325135,15.99851 l 0.0047,0.0103 24.636221,-9.43663 -3.65404,-11.13679 c -0.52097,-0.0856 -1.05459,-0.13417 -1.59887,-0.14418 z" /><path
       id="path17"
       style="display:inline;fill:#edab01;fill-opacity:1;stroke:none;stroke-width:0.1;stroke-linejoin:bevel;stroke-dasharray:none;stroke-opacity:1"
       d="m 109.53939,146.16221 c -1.02206,-14.58759 -13.506839,-13.56233 -21.899869,-6.85524 -8.76957,7.00799 -11.7368,21.92265 1.95012,24.84169 m 0,0 c -15.70647,0.19 -15.08019,-15.86515 -7.10117,-25.47552 8.22552,-9.90727 29.932549,-12.01736 27.050919,7.48907" /><path
       style="font-size:23.8157px;line-height:23.9163px;font-family:'Stalinist One';-inkscape-font-specification:'Stalinist One';letter-spacing:-1.05311px;word-spacing:0px;text-orientation:upright;fill:#edab01;fill-opacity:1;stroke-width:0.140645;stroke-linejoin:bevel"
       d="m 307.63202,105.02247 v -3.38183 h 28.29305 v 5.90629 l -6.2159,-0.85736 v -1.6671 h -12.31271 v 9.90733 h 12.31271 v -2.26249 h -5.02511 v -3.38183 h 11.24101 v 9.02615 h -24.74451 v -13.28916 z"
       transform="scale(0.73890426,1.3533553)"
       id="path5" /><path
       style="font-size:23.8157px;line-height:23.9163px;font-family:'Stalinist One';-inkscape-font-specification:'Stalinist One';letter-spacing:-1.05311px;word-spacing:0px;text-orientation:upright;fill:#edab01;fill-opacity:1;stroke-width:0.140645;stroke-linejoin:bevel"
       d="m 281.79722,105.02247 v -3.38183 h 9.76444 v 13.28916 h 9.95496 v -2.02433 l 6.2159,-0.85737 v 6.26353 h -22.38676 v -13.28916 z"
       transform="scale(0.73890426,1.3533553)"
       id="path4" /><path
       style="font-size:23.8157px;line-height:23.9163px;font-family:'Stalinist One';-inkscape-font-specification:'Stalinist One';letter-spacing:-1.05311px;word-spacing:0px;text-orientation:upright;fill:#0c01ea;stroke-width:0.140645;stroke-linejoin:bevel"
       d="m 255.98621,118.31163 v -5.78721 l 6.2159,0.95262 v 1.45276 h 12.2889 v -1.2146 l -4.66788,-2.04815 h -5.45379 v -3.38183 h 5.45379 l 4.66788,-2.04815 v -1.2146 h -12.2889 v 1.45276 l -6.2159,0.95263 v -5.78722 h 24.7207 v 6.54932 l -5.4538,1.78618 5.4538,1.78617 v 6.54932 z"
       transform="scale(0.73890426,1.3533553)"
       id="path3" /><path
       style="font-size:23.8157px;line-height:23.9163px;font-family:'Stalinist One';-inkscape-font-specification:'Stalinist One';letter-spacing:-1.05311px;word-spacing:0px;text-orientation:upright;fill:#0c01ea;stroke-width:0.140645;stroke-linejoin:bevel"
       d="m 228.50811,118.31163 v -5.47761 l 6.2159,0.905 v 1.19078 h 12.05074 v -2.09578 l -18.26664,-2.8817 v -8.31168 h 24.48254 v 5.78722 l -6.2159,-0.95263 v -1.45276 h -12.05074 v 2.26249 l 18.26664,2.8817 v 8.14497 z"
       transform="scale(0.73890426,1.3533553)"
       id="path2" /><path
       style="font-size:23.8157px;line-height:23.9163px;font-family:'Stalinist One';-inkscape-font-specification:'Stalinist One';letter-spacing:-1.05311px;word-spacing:0px;text-orientation:upright;fill:#0c01ea;stroke-width:0.140645;stroke-linejoin:bevel"
       d="m 196.76698,105.02247 v -3.38183 h 9.76444 v 6.59695 h 12.2889 v -6.59695 h 6.2159 v 16.67099 h -6.2159 v -6.69221 h -12.2889 v 6.69221 h -6.2159 v -13.28916 z"
       transform="scale(0.73890426,1.3533553)"
       id="path1" /><path
       style="font-size:23.8157px;line-height:23.9163px;font-family:'Stalinist One';-inkscape-font-specification:'Stalinist One';letter-spacing:-1.05311px;word-spacing:0px;text-orientation:upright;fill:#0c01ea;stroke-width:0.140645;stroke-linejoin:bevel"
       d="m 167.85995,115.57282 v -4.26301 l 3.54854,-0.95262 v -8.71655 h 6.2159 v 7.02563 l 12.16983,-3.28657 v -3.73906 h 6.21589 v 6.33498 l -9.33575,2.52446 5.35853,4.2392 h 4.12012 v 3.57235 h -7.81155 l -7.83537,-6.16827 -2.8817,0.78592 v 5.38235 h -6.2159 v -3.69143 z"
       transform="scale(0.73890426,1.3533553)"
       id="text1" /></g></svg>
