<?xml version="1.0" encoding="UTF-8" standalone="no"?>
<svg
   width="51.9025mm"
   height="37.364418mm"
   viewBox="0 0 51.9025 37.364418"
   version="1.1"
   id="svg1"
   xml:space="preserve"
   sodipodi:docname="logo.svg"
   inkscape:version="1.4 (86a8ad7, 2024-10-11)"
   xmlns:inkscape="http://www.inkscape.org/namespaces/inkscape"
   xmlns:sodipodi="http://sodipodi.sourceforge.net/DTD/sodipodi-0.dtd"
   xmlns="http://www.w3.org/2000/svg"
   xmlns:svg="http://www.w3.org/2000/svg"><sodipodi:namedview
     id="namedview1"
     pagecolor="#ffffff"
     bordercolor="#000000"
     borderopacity="0.25"
     inkscape:showpageshadow="2"
     inkscape:pageopacity="0.0"
     inkscape:pagecheckerboard="0"
     inkscape:deskcolor="#d1d1d1"
     inkscape:document-units="mm"
     inkscape:zoom="2.9351398"
     inkscape:cx="60.303771"
     inkscape:cy="72.739294"
     inkscape:window-width="1920"
     inkscape:window-height="1009"
     inkscape:window-x="-8"
     inkscape:window-y="-8"
     inkscape:window-maximized="1"
     inkscape:current-layer="layer1" /><defs
     id="defs1" /><g
     id="layer1"
     transform="translate(-72.072602,-131.29396)"><path
       id="rect9"
       style="display:inline;fill:#0c01ea;fill-opacity:1;stroke:#ffffff;stroke-width:0.899999;stroke-linejoin:bevel;stroke-opacity:0"
       d="m 107.34849,148.83123 -24.890474,9.67537 18.240234,9.75496 23.03115,-15.00993 z m -4.05505,7.03316 h 10e-4 a 1.4858344,1.4858344 0 0 0 -5.2e-4,0.0119 1.4858344,1.4858344 0 0 0 1.4857,1.4733 v 0.001 a 1.4858344,1.4858344 0 0 0 -0.0186,-0.001 1.4858344,1.4858344 0 0 0 -1.46658,1.4857 h -10e-4 v -0.0248 a 1.4858344,1.4858344 0 0 0 -1.4857,-1.45986 v -0.001 a 1.4858344,1.4858344 0 0 0 0.006,5.2e-4 1.4858344,1.4858344 0 0 0 1.4795,-1.4857 z m -3.708821,2.127 a 3.2769977,3.2769977 0 0 0 -0.0026,0.0269 3.2769977,3.2769977 0 0 0 3.277311,3.2489 v 0.003 a 3.2769977,3.2769977 0 0 0 -0.0408,-0.002 3.2769977,3.2769977 0 0 0 -3.23494,3.27681 h -0.0021 l -5.17e-4,-0.0543 a 3.2769977,3.2769977 0 0 0 -3.276803,-3.22047 v -0.003 a 3.2769977,3.2769977 0 0 0 0.01395,10e-4 3.2769977,3.2769977 0 0 0 3.263367,-3.2768 z" /><path
       id="rect15"
       style="display:inline;fill:#0c01ea;fill-opacity:1;stroke-width:0.1;stroke-linejoin:bevel"
       d="m 97.362533,133.8032 -25.28993,0.7152 7.326168,16.56333 c 0.789106,-3.55276 2.558181,-7.16476 5.039486,-10.15338 3.082597,-3.71285 8.058609,-6.32981 12.924276,-7.12515 z m 4.289657,3.05046 c -3.935786,-0.0724 -8.390876,1.77441 -12.062826,4.70876 -4.997455,3.99359 -8.104462,10.55273 -7.325135,15.99851 l 0.0047,0.0103 24.636221,-9.43663 -3.65404,-11.13679 c -0.52097,-0.0856 -1.05459,-0.13417 -1.59887,-0.14418 z" /><path
       id="path17"
       style="display:inline;fill:#edab01;fill-opacity:1;stroke:none;stroke-width:0.1;stroke-linejoin:bevel;stroke-dasharray:none;stroke-opacity:1"
       d="m 109.53939,146.16221 c -1.02206,-14.58759 -13.506839,-13.56233 -21.899869,-6.85524 -8.76957,7.00799 -11.7368,21.92265 1.95012,24.84169 m 0,0 c -15.70647,0.19 -15.08019,-15.86515 -7.10117,-25.47552 8.22552,-9.90727 29.932549,-12.01736 27.050919,7.48907" /></g></svg>
