{
	"asset":{
		"generator":"Khronos glTF Blender I/O v5.1.19",
		"version":"2.0"
	},
	"scene":0,
	"scenes":[
		{
			"name":"Scene",
			"nodes":[
				7
			]
		}
	],
	"nodes":[
		{
			"mesh":0,
			"name":"Frame_ComputerFrame_0"
		},
		{
			"children":[
				0
			],
			"name":"Frame",
			"rotation":[
				-0.70710688829422,
				0,
				0,
				0.7071066498756409
			],
			"scale":[
				100,
				99.99999237060547,
				99.99999237060547
			],
			"translation":[
				0,
				0.9755473732948303,
				0
			]
		},
		{
			"mesh":1,
			"name":"Keyboard_ComputerKeyboard_0",
			"rotation":[
				-0.70710688829422,
				0,
				0,
				0.7071066498756409
			],
			"scale":[
				100,
				99.99998474121094,
				99.99998474121094
			],
			"translation":[
				0,
				0.9755473732948303,
				0
			]
		},
		{
			"mesh":2,
			"name":"Screen_ComputerScreen_0"
		},
		{
			"children":[
				3
			],
			"name":"Screen",
			"rotation":[
				0,
				-1,
				0,
				1.9470719792025193e-07
			],
			"scale":[
				100,
				100,
				88.23529815673828
			],
			"translation":[
				0,
				0.6500000357627869,
				-10.30000114440918
			]
		},
		{
			"children":[
				1,
				2,
				4
			],
			"name":"RootNode"
		},
		{
			"children":[
				5
			],
			"name":"6d4c164f62674ba9b12714fec0584379.fbx",
			"rotation":[
				0.70710688829422,
				0,
				0,
				0.7071066498756409
			]
		},
		{
			"children":[
				6
			],
			"name":"Sketchfab_model",
			"rotation":[
				-0.70710688829422,
				0,
				0,
				0.7071066498756409
			]
		}
	],
	"materials":[
		{
			"doubleSided":true,
			"emissiveFactor":[
				1,
				1,
				1
			],
			"emissiveTexture":{
				"index":0
			},
			"name":"ComputerFrame",
			"pbrMetallicRoughness":{
				"baseColorTexture":{
					"index":1
				},
				"metallicFactor":0
			}
		},
		{
			"doubleSided":true,
			"emissiveFactor":[
				1,
				1,
				1
			],
			"emissiveTexture":{
				"index":2
			},
			"name":"ComputerScreen",
			"pbrMetallicRoughness":{
				"baseColorTexture":{
					"index":3
				},
				"metallicFactor":0,
				"metallicRoughnessTexture":{
					"index":4
				}
			}
		}
	],
	"meshes":[
		{
			"name":"Frame_ComputerFrame_0",
			"primitives":[
				{
					"attributes":{
						"POSITION":0,
						"NORMAL":1,
						"TEXCOORD_0":2
					},
					"indices":3,
					"material":0
				}
			]
		},
		{
			"name":"Frame_ComputerFrame_0.001",
			"primitives":[
				{
					"attributes":{
						"POSITION":4,
						"NORMAL":5,
						"TEXCOORD_0":6
					},
					"indices":7,
					"material":0
				}
			]
		},
		{
			"name":"Screen_ComputerScreen_0",
			"primitives":[
				{
					"attributes":{
						"POSITION":8,
						"NORMAL":9,
						"TEXCOORD_0":10
					},
					"indices":11,
					"material":1
				}
			]
		}
	],
	"textures":[
		{
			"sampler":0,
			"source":0
		},
		{
			"sampler":0,
			"source":1
		},
		{
			"sampler":0,
			"source":2
		},
		{
			"sampler":0,
			"source":3
		},
		{
			"sampler":0,
			"source":4
		}
	],
	"images":[
		{
			"mimeType":"image/png",
			"name":"ComputerFrame_emissive",
			"uri":"ComputerFrame_emissive.png"
		},
		{
			"mimeType":"image/png",
			"name":"ComputerFrame_baseColor",
			"uri":"ComputerFrame_baseColor.png"
		},
		{
			"mimeType":"image/png",
			"name":"ComputerScreen_emissive",
			"uri":"ComputerScreen_emissive.png"
		},
		{
			"mimeType":"image/png",
			"name":"ComputerScreen_baseColor",
			"uri":"ComputerScreen_baseColor.png"
		},
		{
			"mimeType":"image/png",
			"name":"ComputerScreen_metallicRoughness",
			"uri":"ComputerScreen_metallicRoughness.png"
		}
	],
	"accessors":[
		{
			"bufferView":0,
			"componentType":5126,
			"count":6400,
			"max":[
				0.15199999511241913,
				0.10499999672174454,
				3.4924596548080444e-09
			],
			"min":[
				-0.15200001001358032,
				-0.09603267908096313,
				-0.009755848906934261
			],
			"type":"VEC3"
		},
		{
			"bufferView":1,
			"componentType":5126,
			"count":6400,
			"type":"VEC3"
		},
		{
			"bufferView":2,
			"componentType":5126,
			"count":6400,
			"type":"VEC2"
		},
		{
			"bufferView":3,
			"componentType":5123,
			"count":19428,
			"type":"SCALAR"
		},
		{
			"bufferView":4,
			"componentType":5126,
			"count":1856,
			"max":[
				0.1361052542924881,
				0.09061804413795471,
				-1.3969838619232178e-09
			],
			"min":[
				-0.13568215072155,
				-0.013071656227111816,
				-0.0018996443832293153
			],
			"type":"VEC3"
		},
		{
			"bufferView":5,
			"componentType":5126,
			"count":1856,
			"type":"VEC3"
		},
		{
			"bufferView":6,
			"componentType":5126,
			"count":1856,
			"type":"VEC2"
		},
		{
			"bufferView":7,
			"componentType":5123,
			"count":5064,
			"type":"SCALAR"
		},
		{
			"bufferView":8,
			"componentType":5126,
			"count":205,
			"max":[
				0.15200001001358032,
				0.19908371567726135,
				0.006765663158148527
			],
			"min":[
				-0.15199998021125793,
				-0.0019489675760269165,
				-0.004622588865458965
			],
			"type":"VEC3"
		},
		{
			"bufferView":9,
			"componentType":5126,
			"count":205,
			"type":"VEC3"
		},
		{
			"bufferView":10,
			"componentType":5126,
			"count":205,
			"type":"VEC2"
		},
		{
			"bufferView":11,
			"componentType":5123,
			"count":474,
			"type":"SCALAR"
		}
	],
	"bufferViews":[
		{
			"buffer":0,
			"byteLength":76800,
			"byteOffset":0,
			"target":34962
		},
		{
			"buffer":0,
			"byteLength":76800,
			"byteOffset":76800,
			"target":34962
		},
		{
			"buffer":0,
			"byteLength":51200,
			"byteOffset":153600,
			"target":34962
		},
		{
			"buffer":0,
			"byteLength":38856,
			"byteOffset":204800,
			"target":34963
		},
		{
			"buffer":0,
			"byteLength":22272,
			"byteOffset":243656,
			"target":34962
		},
		{
			"buffer":0,
			"byteLength":22272,
			"byteOffset":265928,
			"target":34962
		},
		{
			"buffer":0,
			"byteLength":14848,
			"byteOffset":288200,
			"target":34962
		},
		{
			"buffer":0,
			"byteLength":10128,
			"byteOffset":303048,
			"target":34963
		},
		{
			"buffer":0,
			"byteLength":2460,
			"byteOffset":313176,
			"target":34962
		},
		{
			"buffer":0,
			"byteLength":2460,
			"byteOffset":315636,
			"target":34962
		},
		{
			"buffer":0,
			"byteLength":1640,
			"byteOffset":318096,
			"target":34962
		},
		{
			"buffer":0,
			"byteLength":948,
			"byteOffset":319736,
			"target":34963
		}
	],
	"samplers":[
		{
			"magFilter":9729,
			"minFilter":9987
		}
	],
	"buffers":[
		{
			"byteLength":320684,
			"uri":"model.bin"
		}
	]
}
